<svg width="24" height="18" fill="none" xmlns="http://www.w3.org/2000/svg"><path d="M19.67 1.468A19.162 19.162 0 0014.94.001a.072.072 0 00-.075.036c-.204.363-.43.837-.59 1.21a17.69 17.69 0 00-5.311 0C8.805.867 8.57.4 8.366.037A.075.075 0 008.29.001C6.63.287 5.042.788 3.56 1.468a.068.068 0 00-.031.027C.516 5.995-.31 10.385.096 14.72a.08.08 0 00.03.054 19.268 19.268 0 005.802 2.933c.03.01.063-.002.082-.027.447-.61.845-1.254 1.187-1.93.02-.04 0-.087-.04-.103a12.69 12.69 0 01-1.813-.864.074.074 0 01-.007-.123c.122-.092.243-.187.36-.282a.072.072 0 01.075-.01c3.803 1.736 7.92 1.736 11.677 0a.071.071 0 01.076.009c.117.095.239.191.361.283a.074.074 0 01-.006.123c-.579.339-1.18.624-1.813.863a.074.074 0 00-.04.104c.35.675.747 1.319 1.186 1.93a.074.074 0 00.082.027 19.203 19.203 0 005.811-2.933.075.075 0 00.03-.053c.485-5.013-.811-9.367-3.435-13.226a.06.06 0 00-.03-.028zM7.766 12.081c-1.145 0-2.088-1.051-2.088-2.342 0-1.291.925-2.342 2.088-2.342 1.172 0 2.106 1.06 2.088 2.342 0 1.29-.925 2.342-2.088 2.342zm7.72 0c-1.144 0-2.087-1.051-2.087-2.342 0-1.291.925-2.342 2.088-2.342 1.172 0 2.106 1.06 2.088 2.342 0 1.29-.916 2.342-2.088 2.342z" fill="#5E5C6C"/></svg>