<svg width="18" height="13" fill="none" xmlns="http://www.w3.org/2000/svg"><path d="M17.471 5.824V11.8a.278.278 0 01-.273.273h-3.082a.278.278 0 01-.272-.273V6.244c0-1.468-.525-2.475-1.846-2.475-1.006 0-1.593.671-1.866 1.321-.105.23-.125.566-.125.881V11.8a.278.278 0 01-.273.273H6.673A.278.278 0 016.4 11.8c0-1.489.042-8.68 0-10.358 0-.147.126-.273.273-.273h3.082c.147 0 .272.126.272.273V2.72c0 .02-.02.02-.02.042h.02V2.72C10.51 1.987 11.37.918 13.298.918c2.39 0 4.173 1.572 4.173 4.906zm-16.439 6.27h3.083a.278.278 0 00.272-.273V1.441a.278.278 0 00-.272-.272H1.032a.278.278 0 00-.272.273V11.82c.02.147.126.273.272.273z" fill="#fff"/></svg>