<svg width="44" height="17" fill="none" xmlns="http://www.w3.org/2000/svg"><path d="M3.176 10.246V.634H.116V13h9.018v-2.754H3.176zm12.148 2.97c2.808 0 5.166-2.232 5.166-4.878s-2.358-4.86-5.166-4.86c-2.808 0-5.166 2.214-5.166 4.86 0 2.646 2.358 4.878 5.166 4.878zm0-2.538c-1.242 0-2.286-1.08-2.286-2.34 0-1.26 1.044-2.322 2.286-2.322s2.286 1.062 2.286 2.322-1.044 2.34-2.286 2.34zm13.351-6.984v1.134c-.612-.792-1.8-1.35-2.97-1.35-2.304 0-4.086 1.818-4.086 4.41s1.782 4.428 4.086 4.428a3.928 3.928 0 002.97-1.332v.882c0 .99-1.026 1.692-2.556 1.692-1.062 0-2.142-.342-2.718-.828l-1.026 2.124c.954.72 2.538 1.242 4.212 1.242 3.024 0 5.148-1.692 5.148-4.086V3.694h-3.06zm-1.962 6.084c-1.134 0-1.962-.792-1.962-1.89 0-1.098.828-1.872 1.962-1.872 1.152 0 1.962.774 1.962 1.872s-.81 1.89-1.962 1.89zm11.796 3.438c2.808 0 5.166-2.232 5.166-4.878s-2.358-4.86-5.166-4.86c-2.808 0-5.166 2.214-5.166 4.86 0 2.646 2.358 4.878 5.166 4.878zm0-2.538c-1.242 0-2.286-1.08-2.286-2.34 0-1.26 1.044-2.322 2.286-2.322s2.286 1.062 2.286 2.322-1.044 2.34-2.286 2.34z" fill="#fff"/></svg>