<svg width="12" height="8" fill="none" xmlns="http://www.w3.org/2000/svg"><path d="M11.038 3.693V7.6a.181.181 0 01-.178.178H8.844a.181.181 0 01-.178-.178V3.967c0-.96-.343-1.618-1.206-1.618-.658 0-1.042.439-1.22.864-.069.15-.083.37-.083.576v3.81a.181.181 0 01-.178.18H3.977a.181.181 0 01-.178-.18c0-.972.028-5.675 0-6.772 0-.096.082-.178.178-.178h2.016c.096 0 .178.082.178.178v.837c0 .013-.014.013-.014.027h.014v-.027c.315-.48.877-1.18 2.139-1.18 1.563 0 2.728 1.029 2.728 3.209zM.29 7.792h2.015a.181.181 0 00.178-.178V.827A.181.181 0 002.305.65H.29a.181.181 0 00-.18.177v6.787c.014.096.083.178.179.178z" fill="#333033"/></svg>