<svg width="33" height="25" fill="none" xmlns="http://www.w3.org/2000/svg"><path fill-rule="evenodd" clip-rule="evenodd" d="M23.31 14.148c1.998 1.356 3.399 3.194 3.399 5.644v4.375h5.833v-4.375c0-3.18-5.207-5.06-9.232-5.644z" fill="#6E4ABC"/><path d="M12.126 12.5a5.833 5.833 0 100-11.667 5.833 5.833 0 000 11.667z" fill="#6E4ABC"/><path fill-rule="evenodd" clip-rule="evenodd" d="M20.875 12.5a5.832 5.832 0 005.834-5.833A5.832 5.832 0 0020.875.833c-.685 0-1.327.146-1.94.35a8.72 8.72 0 010 10.967c.613.204 1.255.35 1.94.35zm-8.749 1.458c-3.894 0-11.667 1.954-11.667 5.834v4.375h23.333v-4.375c0-3.88-7.773-5.834-11.666-5.834z" fill="#6E4ABC"/></svg>