<svg width="25" height="31" fill="none" xmlns="http://www.w3.org/2000/svg"><path d="M15.417.917H3.751A2.913 2.913 0 00.849 3.833L.834 27.167a2.913 2.913 0 002.902 2.916h17.515a2.925 2.925 0 002.916-2.916v-17.5l-8.75-8.75zM16.876 15.5h-5.834v1.458h4.375c.802 0 1.459.657 1.459 1.459v4.375c0 .802-.657 1.458-1.459 1.458H13.96v1.458h-2.917V24.25H8.126v-2.917h5.833v-1.458H9.584a1.463 1.463 0 01-1.458-1.458v-4.375c0-.802.656-1.459 1.458-1.459h1.458v-1.458h2.917v1.458h2.917V15.5zm-2.917-5.833V3.104l6.563 6.563h-6.563z" fill="#EFB657"/></svg>