<svg width="12" height="11" fill="none" xmlns="http://www.w3.org/2000/svg"><path d="M12 1.654a5.13 5.13 0 01-1.418.389c.515-.306.9-.79 1.083-1.36a4.917 4.917 0 01-1.56.595 2.46 2.46 0 00-4.256 1.683c0 .195.017.382.057.56A6.963 6.963 0 01.836.949a2.464 2.464 0 00.755 3.288A2.43 2.43 0 01.48 3.933v.027a2.471 2.471 0 001.971 2.418c-.21.055-.427.082-.645.08a2.175 2.175 0 01-.466-.041 2.483 2.483 0 002.3 1.713A4.942 4.942 0 010 9.146a6.925 6.925 0 003.774 1.104c4.527 0 7.002-3.75 7.002-7 0-.11-.004-.214-.009-.319A4.91 4.91 0 0012 1.654z" fill="#5E5C6C"/></svg>