<svg width="121" height="30" fill="none" xmlns="http://www.w3.org/2000/svg"><path fill-rule="evenodd" clip-rule="evenodd" d="M14.585 29.045c8.057 0 14.584-6.496 14.584-14.522C29.17 6.496 22.642 0 14.585 0 6.527 0 0 6.496 0 14.523c0 8.026 6.527 14.522 14.585 14.522zm0-4.997c5.902 0 10.65-4.747 10.65-10.587s-4.779-8.277-10.65-8.277c-5.903 0-10.65 2.405-10.65 8.277-.031 5.871 4.747 10.587 10.65 10.587z" fill="#232427"/><path fill-rule="evenodd" clip-rule="evenodd" d="M8.276 15.179c.624 0 1.187-.25 1.624-.625.218.406.5.843.75 1.28.562.938 1.186 1.906 1.748 2.624.281.375.594.719.875.968.25.219.687.531 1.187.531s.936-.312 1.186-.53c.313-.25.625-.594.906-.938.593-.718 1.25-1.686 1.843-2.623.28-.469.562-.906.812-1.343.437.406 1.03.687 1.655.687 1.311 0 2.405-1.062 2.405-2.374 0-1.311-1.062-2.373-2.405-2.373-1.062 0-1.999.718-2.28 1.686a3.4 3.4 0 00-.187.344 54.85 54.85 0 01-1.468 2.498c-.562.906-1.187 1.812-1.718 2.437-.281.312-.5.562-.687.718-.031.031-.062.031-.062.062-.032 0-.032-.03-.063-.062a3.878 3.878 0 01-.656-.718c-.5-.656-1.093-1.53-1.624-2.437a94.392 94.392 0 01-1.405-2.498c-.063-.094-.094-.187-.125-.25a2.408 2.408 0 00-2.311-1.78c-1.312 0-2.405 1.062-2.405 2.373 0 1.281 1.062 2.343 2.405 2.343z" fill="#232427"/><path d="M43.022 19h1.736V9.382h-1.736V19zm7.637-7.406c-.952 0-1.792.462-2.24 1.134v-.966h-1.708V19h1.708v-4.578c.112-.77.854-1.372 1.75-1.372s1.526.7 1.526 1.68V19h1.652v-4.606c0-1.638-1.106-2.8-2.688-2.8zm10.045-2.38v3.668c-.574-.812-1.442-1.288-2.506-1.288-1.918 0-3.318 1.568-3.318 3.78 0 2.226 1.4 3.794 3.318 3.794 1.064 0 1.932-.476 2.506-1.288V19h1.708V9.214h-1.708zm-2.044 8.498c-1.218 0-2.086-.98-2.086-2.338s.868-2.324 2.086-2.324c1.204 0 2.044.966 2.044 2.324 0 1.358-.84 2.338-2.044 2.338zm9.049-.056c-1.037 0-1.793-.7-2.002-1.694h5.46c0-2.674-1.302-4.368-3.543-4.368-2.057 0-3.681 1.596-3.681 3.766 0 2.226 1.707 3.808 3.78 3.808 1.05 0 2.31-.448 2.94-1.12l-1.078-1.12c-.406.42-1.204.728-1.876.728zm-.014-4.55c1.022 0 1.638.644 1.834 1.554H65.72c.251-.952 1.022-1.554 1.974-1.554zM79.282 19l-2.716-3.71 2.59-3.528h-1.862l-1.652 2.254-1.652-2.254h-1.876l2.59 3.542L71.989 19h1.862l1.778-2.422L77.393 19h1.89zm9.922.168a5.014 5.014 0 003.627-1.568L91.6 16.452c-.602.686-1.456 1.12-2.394 1.12-1.779 0-3.276-1.54-3.276-3.388 0-1.834 1.497-3.374 3.275-3.374.924 0 1.793.434 2.38 1.12l1.247-1.162a5.056 5.056 0 00-3.626-1.554c-2.745 0-5.055 2.268-5.055 4.97s2.31 4.984 5.055 4.984zm8.42 0c2.1 0 3.879-1.736 3.879-3.794s-1.779-3.78-3.879-3.78-3.877 1.722-3.877 3.78 1.777 3.794 3.877 3.794zm0-1.456c-1.204 0-2.212-1.064-2.212-2.338 0-1.26 1.008-2.324 2.213-2.324 1.19 0 2.197 1.064 2.197 2.324 0 1.274-1.007 2.338-2.197 2.338zm8.86 1.456c2.1 0 3.878-1.736 3.878-3.794s-1.778-3.78-3.878-3.78-3.878 1.722-3.878 3.78 1.778 3.794 3.878 3.794zm0-1.456c-1.204 0-2.212-1.064-2.212-2.338 0-1.26 1.008-2.324 2.212-2.324 1.19 0 2.198 1.064 2.198 2.324 0 1.274-1.008 2.338-2.198 2.338zm9.629-6.118c-1.078 0-1.946.49-2.52 1.316v-1.148h-1.708v9.646h1.708v-3.556c.574.826 1.442 1.316 2.52 1.316 1.918 0 3.318-1.568 3.318-3.794 0-2.212-1.4-3.78-3.318-3.78zm-.462 6.118c-1.204 0-2.044-.98-2.044-2.338s.84-2.324 2.044-2.324c1.218 0 2.086.966 2.086 2.324 0 1.358-.868 2.338-2.086 2.338z" fill="#232427"/></svg>