<svg width="162" height="30" fill="none" xmlns="http://www.w3.org/2000/svg"><path d="M15 29.55c8.035 0 14.55-6.514 14.55-14.55C29.55 6.964 23.034.45 15 .45 6.962.45.45 6.964.45 15c0 8.036 6.513 14.55 14.55 14.55z" fill="#232427"/><path d="M21.366 20.798l-4.92-11.895c-.277-.615-.69-.915-1.233-.915h-.435c-.544 0-.957.3-1.234.915l-2.141 5.182h-1.62a.887.887 0 00-.882.881v.012a.89.89 0 00.882.88h.87l-2.044 4.94c-.038.108-.06.22-.06.337 0 .278.086.495.24.664.154.169.375.251.652.251a.872.872 0 00.507-.169c.157-.108.266-.266.352-.446l2.25-5.58h1.56a.888.888 0 00.881-.881v-.023a.89.89 0 00-.88-.88h-.833l1.717-4.28 4.68 11.64c.086.18.195.338.353.447a.881.881 0 00.506.168c.277 0 .495-.082.652-.25.158-.17.24-.387.24-.665a.786.786 0 00-.06-.333z" fill="#FAFAFA"/><path d="M50.316 19h1.932L48.23 9.382h-1.946L42.266 19h1.946l.728-1.736h4.648L50.316 19zm-4.746-3.248l1.694-4.046 1.694 4.046H45.57zm11.045-4.158c-.91 0-1.862.252-2.884.756l.588 1.19c.616-.308 1.274-.546 1.96-.546 1.316 0 1.778.812 1.778 1.652v.196a5.803 5.803 0 00-2.03-.392c-1.624 0-2.954.98-2.954 2.408 0 1.4 1.162 2.31 2.702 2.31.84 0 1.75-.364 2.282-1.036V19h1.666v-4.354c0-1.834-1.19-3.052-3.108-3.052zm-.462 6.328c-.812 0-1.414-.434-1.414-1.12 0-.686.686-1.162 1.54-1.162.644 0 1.246.098 1.778.28v.812c-.196.77-1.078 1.19-1.904 1.19zM63.995 19h1.61l3.066-7.238h-1.82l-2.058 5.264-2.1-5.264h-1.806L63.995 19zm8.772-1.344c-1.036 0-1.792-.7-2.002-1.694h5.46c0-2.674-1.302-4.368-3.542-4.368-2.058 0-3.682 1.596-3.682 3.766 0 2.226 1.708 3.808 3.78 3.808 1.05 0 2.31-.448 2.94-1.12l-1.078-1.12c-.406.42-1.204.728-1.876.728zm-.014-4.55c1.022 0 1.638.644 1.834 1.554H70.78c.252-.952 1.022-1.554 1.974-1.554zm13.411 2.03h2.394v1.75a3.73 3.73 0 01-2.114.686c-1.792 0-3.304-1.54-3.304-3.388 0-1.834 1.512-3.374 3.304-3.374.938 0 1.974.42 2.576 1.12l1.246-1.162c-.924-.966-2.422-1.554-3.822-1.554-2.758 0-5.082 2.268-5.082 4.97s2.324 4.984 5.082 4.984c1.4 0 2.898-.602 3.822-1.568v-3.892h-4.102v1.428zm7.66-1.974v-1.4h-1.707V19h1.708v-3.654c0-1.372 1.036-2.296 2.59-2.296v-1.456c-1.19 0-2.128.602-2.59 1.568zm7.006-1.568c-.91 0-1.862.252-2.884.756l.588 1.19c.616-.308 1.274-.546 1.96-.546 1.316 0 1.778.812 1.778 1.652v.196a5.803 5.803 0 00-2.03-.392c-1.624 0-2.954.98-2.954 2.408 0 1.4 1.162 2.31 2.702 2.31.84 0 1.75-.364 2.282-1.036V19h1.666v-4.354c0-1.834-1.19-3.052-3.108-3.052zm-.462 6.328c-.812 0-1.414-.434-1.414-1.12 0-.686.686-1.162 1.54-1.162.644 0 1.246.098 1.778.28v.812c-.196.77-1.078 1.19-1.904 1.19zm9.368-6.328c-.952 0-1.792.462-2.24 1.134v-.966h-1.708V19h1.708v-4.578c.112-.77.854-1.372 1.75-1.372s1.526.7 1.526 1.68V19h1.652v-4.606c0-1.638-1.106-2.8-2.688-2.8zm8.154 5.852c-.154.154-.42.266-.714.266-.406 0-.714-.35-.714-.84v-3.696h1.638v-1.414h-1.638V9.774h-1.666v1.988h-1.05v1.414h1.05v3.906c0 1.218.84 2.086 2.044 2.086a2.46 2.46 0 001.54-.574l-.49-1.148zm4.49 1.722c1.694 0 2.842-.896 2.842-2.282 0-1.512-1.316-1.932-2.534-2.268-1.106-.322-1.484-.462-1.484-.924 0-.406.462-.644 1.064-.644.63 0 1.372.224 2.058.658l.714-1.246c-.784-.518-1.778-.868-2.772-.868-1.61 0-2.73.924-2.73 2.282.014 1.288 1.008 1.736 2.576 2.142.826.224 1.456.406 1.456.966 0 .448-.476.742-1.162.742-.91 0-1.722-.336-2.422-.84l-.77 1.19c.868.7 2.058 1.092 3.164 1.092zm8.472-.168h3.388c3.178 0 5.418-2.002 5.418-4.816s-2.24-4.802-5.418-4.802h-3.388V19zm1.75-1.582v-6.454h1.82c2.03 0 3.458 1.33 3.458 3.22 0 1.89-1.428 3.234-3.458 3.234h-1.82zM148.084 19h1.932l-4.018-9.618h-1.946L140.034 19h1.946l.728-1.736h4.648l.728 1.736zm-4.746-3.248l1.694-4.046 1.694 4.046h-3.388zm12.641 3.416c2.73 0 5.04-2.282 5.04-4.984s-2.31-4.97-5.04-4.97c-2.744 0-5.054 2.268-5.054 4.97s2.31 4.984 5.054 4.984zm0-1.596c-1.778 0-3.276-1.54-3.276-3.388 0-1.834 1.498-3.374 3.276-3.374 1.764 0 3.248 1.54 3.248 3.374 0 1.848-1.484 3.388-3.248 3.388z" fill="#232427"/></svg>