<svg width="158" height="30" fill="none" xmlns="http://www.w3.org/2000/svg"><path d="M25.794 0H3.922A3.922 3.922 0 000 3.922v21.872a3.922 3.922 0 003.922 3.921h21.872a3.922 3.922 0 003.921-3.921V3.922A3.922 3.922 0 0025.794 0z" fill="#232427"/><path fill-rule="evenodd" clip-rule="evenodd" d="M8.346 20.07a1.567 1.567 0 01-.744-1.334v-3.034c0-.117.03-.229.088-.328a.644.644 0 01.887-.234l6.805 3.993c.398.234.643.661.643 1.126v3.145a.775.775 0 01-1.183.668L8.346 20.07zm10.144-5.762c.398.234.643.661.643 1.126v6.38a.52.52 0 01-.264.455l-1.49.844a.305.305 0 01-.06.025v-3.543c0-.458-.238-.884-.63-1.12l-5.977-3.599v-4a.65.65 0 01.975-.561l6.803 3.993zm2.979-4.713c.4.232.645.664.645 1.128v9.32a.525.525 0 01-.272.459l-1.412.767v-6.488c0-.459-.24-.882-.629-1.118l-6.109-3.689V6.181a.647.647 0 01.973-.564l6.804 3.978z" fill="#FAFAFA"/><path d="M47.684 19.168A5.014 5.014 0 0051.31 17.6l-1.232-1.148c-.602.686-1.456 1.12-2.394 1.12-1.778 0-3.276-1.54-3.276-3.388 0-1.834 1.498-3.374 3.276-3.374.924 0 1.792.434 2.38 1.12l1.246-1.162a5.056 5.056 0 00-3.626-1.554c-2.744 0-5.054 2.268-5.054 4.97s2.31 4.984 5.054 4.984zm8.42 0c2.1 0 3.878-1.736 3.878-3.794s-1.778-3.78-3.878-3.78-3.878 1.722-3.878 3.78 1.778 3.794 3.878 3.794zm0-1.456c-1.204 0-2.212-1.064-2.212-2.338 0-1.26 1.008-2.324 2.212-2.324 1.19 0 2.198 1.064 2.198 2.324 0 1.274-1.008 2.338-2.198 2.338zm13.717-6.118c-1.078 0-1.988.532-2.338 1.372-.448-.854-1.288-1.372-2.31-1.372-.91 0-1.652.448-2.016 1.148v-.98H61.45V19h1.708v-4.438c0-.882.658-1.512 1.582-1.512.84 0 1.414.672 1.414 1.624V19h1.666v-4.438c0-.882.644-1.512 1.582-1.512.826 0 1.4.672 1.4 1.624V19h1.666v-4.606c0-1.638-1.134-2.8-2.646-2.8zm8.764 0c-1.078 0-1.946.49-2.52 1.316v-1.148h-1.708v9.646h1.708v-3.556c.574.826 1.442 1.316 2.52 1.316 1.918 0 3.318-1.568 3.318-3.794 0-2.212-1.4-3.78-3.318-3.78zm-.462 6.118c-1.204 0-2.044-.98-2.044-2.338s.84-2.324 2.044-2.324c1.218 0 2.086.966 2.086 2.324 0 1.358-.868 2.338-2.086 2.338zm10.225-5.95v4.578c-.112.77-.854 1.372-1.75 1.372s-1.526-.7-1.526-1.68v-4.27H83.42v4.606c0 1.638 1.106 2.8 2.688 2.8.952 0 1.792-.462 2.24-1.134V19h1.708v-7.238h-1.708zm7.538-.168c-.952 0-1.792.462-2.24 1.134v-.966h-1.708V19h1.708v-4.578c.112-.77.854-1.372 1.75-1.372s1.526.7 1.526 1.68V19h1.652v-4.606c0-1.638-1.106-2.8-2.688-2.8zm10.044-2.38v3.668c-.574-.812-1.442-1.288-2.506-1.288-1.918 0-3.318 1.568-3.318 3.78 0 2.226 1.4 3.794 3.318 3.794 1.064 0 1.932-.476 2.506-1.288V19h1.708V9.214h-1.708zm-2.044 8.498c-1.218 0-2.086-.98-2.086-2.338s.868-2.324 2.086-2.324c1.204 0 2.044.966 2.044 2.324 0 1.358-.84 2.338-2.044 2.338zm14.134-2.576h2.394v1.75a3.73 3.73 0 01-2.114.686c-1.792 0-3.304-1.54-3.304-3.388 0-1.834 1.512-3.374 3.304-3.374.938 0 1.974.42 2.576 1.12l1.246-1.162c-.924-.966-2.422-1.554-3.822-1.554-2.758 0-5.082 2.268-5.082 4.97s2.324 4.984 5.082 4.984c1.4 0 2.898-.602 3.822-1.568v-3.892h-4.102v1.428zm7.66-1.974v-1.4h-1.708V19h1.708v-3.654c0-1.372 1.036-2.296 2.59-2.296v-1.456c-1.19 0-2.128.602-2.59 1.568zm7.006-1.568c-.91 0-1.862.252-2.884.756l.588 1.19c.616-.308 1.274-.546 1.96-.546 1.316 0 1.778.812 1.778 1.652v.196a5.803 5.803 0 00-2.03-.392c-1.624 0-2.954.98-2.954 2.408 0 1.4 1.162 2.31 2.702 2.31.84 0 1.75-.364 2.282-1.036V19h1.666v-4.354c0-1.834-1.19-3.052-3.108-3.052zm-.462 6.328c-.812 0-1.414-.434-1.414-1.12 0-.686.686-1.162 1.54-1.162.644 0 1.246.098 1.778.28v.812c-.196.77-1.078 1.19-1.904 1.19zm9.367-6.328c-.952 0-1.792.462-2.24 1.134v-.966h-1.708V19h1.708v-4.578c.112-.77.854-1.372 1.75-1.372s1.526.7 1.526 1.68V19h1.652v-4.606c0-1.638-1.106-2.8-2.688-2.8zm8.154 5.852c-.154.154-.42.266-.714.266-.406 0-.714-.35-.714-.84v-3.696h1.638v-1.414h-1.638V9.774h-1.666v1.988h-1.05v1.414h1.05v3.906c0 1.218.84 2.086 2.044 2.086a2.46 2.46 0 001.54-.574l-.49-1.148zm4.49 1.722c1.694 0 2.842-.896 2.842-2.282 0-1.512-1.316-1.932-2.534-2.268-1.106-.322-1.484-.462-1.484-.924 0-.406.462-.644 1.064-.644.63 0 1.372.224 2.058.658l.714-1.246c-.784-.518-1.778-.868-2.772-.868-1.61 0-2.73.924-2.73 2.282.014 1.288 1.008 1.736 2.576 2.142.826.224 1.456.406 1.456.966 0 .448-.476.742-1.162.742-.91 0-1.722-.336-2.422-.84l-.77 1.19c.868.7 2.058 1.092 3.164 1.092z" fill="#232427"/></svg>