<svg width="18" height="15" fill="none" xmlns="http://www.w3.org/2000/svg"><path d="M18 1.981a7.694 7.694 0 01-2.126.583 3.67 3.67 0 001.623-2.04 7.373 7.373 0 01-2.34.894A3.69 3.69 0 008.774 3.94c0 .292.025.574.085.841A10.445 10.445 0 011.253.922a3.696 3.696 0 001.134 4.933A3.645 3.645 0 01.72 5.4v.04a3.707 3.707 0 002.957 3.626 3.683 3.683 0 01-.968.122 3.263 3.263 0 01-.699-.063 3.725 3.725 0 003.449 2.57A7.414 7.414 0 01.883 13.27c-.302 0-.593-.014-.883-.051a10.39 10.39 0 005.661 1.656c6.79 0 10.503-5.625 10.503-10.5 0-.164-.006-.322-.014-.478A7.362 7.362 0 0018 1.981z" fill="#5E5C6C"/></svg>